<svg width="40" height="40" viewBox="0 0 40 40" fill="none" xmlns="http://www.w3.org/2000/svg">
<path d="M30.1239 2.58984L37.0789 9.83984V37.4098H11.0977V37.4998H37.1677V9.93109L30.1239 2.58984Z" fill="#909090"/>
<path d="M30.0405 2.5H11.0117V37.41H37.0817V9.84125L30.0405 2.5Z" fill="#F4F4F4"/>
<path d="M10.8195 4.375H2.83203V12.9087H27.957V4.375H10.8195Z" fill="#7A7B7C"/>
<path d="M28.0884 12.7627H2.99219V4.22266H28.0884V12.7627Z" fill="#DD2025"/>
<path d="M11.3134 5.66734H9.67969V11.6673H10.9647V9.64359L11.2484 9.65984C11.5242 9.65604 11.7975 9.60662 12.0572 9.51359C12.2855 9.43608 12.4953 9.31224 12.6734 9.14984C12.8561 8.99664 12.9997 8.8021 13.0922 8.58234C13.2187 8.21823 13.2636 7.83072 13.2234 7.44734C13.2163 7.1734 13.1683 6.90207 13.0809 6.64234C13.0022 6.4546 12.8852 6.28536 12.7373 6.14545C12.5894 6.00554 12.414 5.89804 12.2222 5.82984C12.0568 5.7686 11.8855 5.72502 11.7109 5.69984C11.5791 5.67837 11.4458 5.6675 11.3122 5.66734M11.0759 8.53484H10.9647V6.68484H11.2059C11.3124 6.67716 11.4193 6.69351 11.5186 6.73267C11.6179 6.77183 11.7071 6.8328 11.7797 6.91109C11.9301 7.11236 12.0104 7.35734 12.0084 7.60859C12.0084 7.91609 12.0084 8.19484 11.7309 8.39109C11.5311 8.50118 11.3035 8.55195 11.0759 8.53484ZM15.6647 5.65109C15.5259 5.65109 15.3909 5.66109 15.2959 5.66484L14.9984 5.67234H14.0234V11.6723H15.1709C15.6094 11.6836 16.0459 11.6093 16.4559 11.4536C16.7861 11.3232 17.0783 11.1122 17.3059 10.8398C17.529 10.5663 17.6883 10.2464 17.7722 9.90359C17.8708 9.516 17.9187 9.11725 17.9147 8.71734C17.9392 8.24503 17.9026 7.77154 17.8059 7.30859C17.7134 6.9682 17.5421 6.65434 17.3059 6.39234C17.1207 6.18048 16.8928 6.0101 16.6372 5.89234C16.4182 5.79084 16.1878 5.71613 15.9509 5.66984C15.8567 5.6544 15.7614 5.64729 15.6659 5.64859M15.4384 10.5698H15.3134V6.73984H15.3297C15.5874 6.71004 15.8482 6.75655 16.0797 6.87359C16.2493 7.009 16.3874 7.17959 16.4847 7.37359C16.5896 7.57776 16.6501 7.80184 16.6622 8.03109C16.6734 8.30609 16.6622 8.53109 16.6622 8.71734C16.6668 8.93187 16.653 9.14641 16.6209 9.35859C16.5816 9.57617 16.5104 9.78677 16.4097 9.98359C16.2959 10.1671 16.1404 10.3213 15.9559 10.4336C15.8018 10.5336 15.6191 10.5802 15.4359 10.5661M21.7859 5.67234H18.7484V11.6723H20.0334V9.29234H21.6584V8.17734H20.0334V6.78734H21.7834V5.67234" fill="#464648"/>
<path d="M27.2249 25.3189C27.2249 25.3189 31.2099 24.5964 31.2099 25.9576C31.2099 27.3189 28.7411 26.7651 27.2249 25.3189ZM24.2786 25.4226C23.6454 25.5622 23.0283 25.767 22.4374 26.0339L22.9374 24.9089C23.4374 23.7839 23.9561 22.2501 23.9561 22.2501C24.5513 23.2553 25.2456 24.1983 26.0286 25.0651C25.4391 25.153 24.8549 25.2731 24.2786 25.4251V25.4226ZM22.7011 17.2976C22.7011 16.1114 23.0849 15.7876 23.3836 15.7876C23.6824 15.7876 24.0186 15.9314 24.0299 16.9614C23.9324 17.9971 23.7156 19.018 23.3836 20.0039C22.9274 19.1767 22.6919 18.246 22.6999 17.3014L22.7011 17.2976ZM16.8899 30.4426C15.6674 29.7114 19.4536 27.4601 20.1399 27.3876C20.1361 27.3889 18.1699 31.2076 16.8899 30.4426ZM32.3736 26.1189C32.3611 25.9939 32.2486 24.6101 29.7861 24.6689C28.7597 24.6509 27.7337 24.7233 26.7199 24.8851C25.7372 23.896 24.8914 22.7799 24.2049 21.5664C24.6371 20.3155 24.8991 19.0121 24.9836 17.6914C24.9474 16.1914 24.5886 15.3314 23.4386 15.3439C22.2886 15.3564 22.1211 16.3626 22.2724 17.8601C22.4204 18.8665 22.6999 19.849 23.1036 20.7826C23.1036 20.7826 22.5724 22.4364 21.8699 24.0814C21.1674 25.7264 20.6874 26.5889 20.6874 26.5889C19.4656 26.9861 18.3156 27.577 17.2811 28.3389C16.2511 29.2976 15.8324 30.0339 16.3749 30.7701C16.8424 31.4051 18.4786 31.5489 19.9411 29.6326C20.7169 28.6419 21.4267 27.6014 22.0661 26.5176C22.0661 26.5176 24.2961 25.9064 24.9899 25.7389C25.6836 25.5714 26.5224 25.4389 26.5224 25.4389C26.5224 25.4389 28.5586 27.4876 30.5224 27.4151C32.4861 27.3426 32.3911 26.2414 32.3786 26.1214" fill="#DD2025"/>
<path d="M29.9414 2.5957V9.93695H36.9827L29.9414 2.5957Z" fill="#909090"/>
<path d="M30.0391 2.5V9.84125H37.0803L30.0391 2.5Z" fill="#F4F4F4"/>
<path d="M11.2197 5.57164H9.58594V11.5716H10.8759V9.54914L11.1609 9.56539C11.4367 9.56158 11.71 9.51217 11.9697 9.41914C12.198 9.34163 12.4078 9.21779 12.5859 9.05539C12.7673 8.90177 12.9095 8.70726 13.0009 8.48789C13.1275 8.12378 13.1723 7.73627 13.1322 7.35289C13.1251 7.07895 13.077 6.80762 12.9897 6.54789C12.911 6.36015 12.7939 6.19091 12.6461 6.051C12.4982 5.91109 12.3227 5.80359 12.1309 5.73539C11.9648 5.67355 11.7926 5.62955 11.6172 5.60414C11.4854 5.58267 11.352 5.5718 11.2184 5.57164M10.9822 8.43914H10.8709V6.58914H11.1134C11.2199 6.58146 11.3268 6.5978 11.4261 6.63696C11.5254 6.67612 11.6146 6.7371 11.6872 6.81539C11.8376 7.01665 11.9179 7.26164 11.9159 7.51289C11.9159 7.82039 11.9159 8.09914 11.6384 8.29539C11.4386 8.40548 11.211 8.45499 10.9834 8.43789M15.5709 5.55539C15.4322 5.55539 15.2972 5.56539 15.2022 5.56914L14.9084 5.57664H13.9334V11.5766H15.0809C15.5194 11.5879 15.9559 11.5136 16.3659 11.3579C16.6961 11.2275 16.9883 11.0165 17.2159 10.7441C17.439 10.4706 17.5983 10.1507 17.6822 9.80789C17.7808 9.42029 17.8287 9.02155 17.8247 8.62163C17.8492 8.14933 17.8126 7.67584 17.7159 7.21289C17.6234 6.8725 17.4521 6.55864 17.2159 6.29664C17.0307 6.08477 16.8028 5.91439 16.5472 5.79664C16.3282 5.69513 16.0978 5.62043 15.8609 5.57414C15.7667 5.5587 15.6714 5.55158 15.5759 5.55289M15.3484 10.4741H15.2234V6.64414H15.2397C15.4974 6.61434 15.7582 6.66084 15.9897 6.77789C16.1593 6.91329 16.2974 7.08388 16.3947 7.27789C16.4996 7.48205 16.5601 7.70614 16.5722 7.93539C16.5834 8.21039 16.5722 8.43538 16.5722 8.62163C16.5768 8.83617 16.563 9.05071 16.5309 9.26289C16.4916 9.48047 16.4204 9.69106 16.3197 9.88789C16.2059 10.0714 16.0504 10.2256 15.8659 10.3379C15.7118 10.4379 15.5291 10.4844 15.3459 10.4704M21.6922 5.57664H18.6547V11.5766H19.9397V9.19664H21.5647V8.08164H19.9397V6.69164H21.6897V5.57664" fill="white"/>
</svg>
